{
  "accessors": [
    {
      "bufferView": 2,
      "componentType": 5126,
      "count": 6809,
      "max": [
        89.60382843017578,
        159.8260955810547,
        12.793027877807617
      ],
      "min": [
        -89.60382843017578,
        0.256698340177536,
        -18.899301528930664
      ],
      "type": "VEC3"
    },
    {
      "bufferView": 2,
      "byteOffset": 81708,
      "componentType": 5126,
      "count": 6809,
      "max": [
        1.0,
        1.0,
        1.0
      ],
      "min": [
        -1.0,
        -1.0,
        -1.0
      ],
      "type": "VEC3"
    },
    {
      "bufferView": 3,
      "componentType": 5126,
      "count": 6809,
      "max": [
        0.9999997615814209,
        0.9999671578407288,
        0.9996395707130432,
        1.0
      ],
      "min": [
        -0.9999999403953552,
        -0.999872624874115,
        -0.9996207356452942,
        -1.0
      ],
      "type": "VEC4"
    },
    {
      "bufferView": 1,
      "componentType": 5126,
      "count": 6809,
      "max": [
        0.9921875,
        0.9874785542488098
      ],
      "min": [
        0.0078125,
        0.0078125
      ],
      "type": "VEC2"
    },
    {
      "bufferView": 0,
      "componentType": 5125,
      "count": 28374,
      "type": "SCALAR"
    },
    {
      "bufferView": 2,
      "byteOffset": 163416,
      "componentType": 5126,
      "count": 3196,
      "max": [
        22.7922306060791,
        161.3701629638672,
        13.107538223266602
      ],
      "min": [
        -25.267915725708008,
        68.46607971191406,
        -16.83100128173828
      ],
      "type": "VEC3"
    },
    {
      "bufferView": 2,
      "byteOffset": 201768,
      "componentType": 5126,
      "count": 3196,
      "max": [
        0.9985346794128418,
        1.0,
        0.9999735951423645
      ],
      "min": [
        -0.9989688396453857,
        -1.0,
        -0.9999985694885254
      ],
      "type": "VEC3"
    },
    {
      "bufferView": 3,
      "byteOffset": 108944,
      "componentType": 5126,
      "count": 3196,
      "max": [
        0.9994078874588013,
        0.999951958656311,
        0.9999105334281921,
        1.0
      ],
      "min": [
        -0.9999973177909851,
        -0.9998298287391663,
        -0.9999292492866516,
        -1.0
      ],
      "type": "VEC4"
    },
    {
      "bufferView": 1,
      "byteOffset": 54472,
      "componentType": 5126,
      "count": 3196,
      "max": [
        0.9921875,
        0.9677027463912964
      ],
      "min": [
        0.0078125,
        0.0078125
      ],
      "type": "VEC2"
    },
    {
      "bufferView": 0,
      "byteOffset": 113496,
      "componentType": 5125,
      "count": 13428,
      "type": "SCALAR"
    }
  ],
  "asset": {
    "extras": {
      "author": "Christoffer Eriksson (https://sketchfab.com/Chris.Hmm)",
      "license": "CC-BY-4.0 (http://creativecommons.org/licenses/by/4.0/)",
      "source": "https://sketchfab.com/3d-models/1700th-ish-century-soldier-bfeb4a6d570b446a8ac710890b541371",
      "title": "1700th-ish century Soldier"
    },
    "generator": "Sketchfab-12.67.0",
    "version": "2.0"
  },
  "bufferViews": [
    {
      "buffer": 0,
      "byteLength": 167208,
      "name": "floatBufferViews",
      "target": 34963
    },
    {
      "buffer": 0,
      "byteLength": 80040,
      "byteOffset": 167208,
      "byteStride": 8,
      "name": "floatBufferViews",
      "target": 34962
    },
    {
      "buffer": 0,
      "byteLength": 240120,
      "byteOffset": 247248,
      "byteStride": 12,
      "name": "floatBufferViews",
      "target": 34962
    },
    {
      "buffer": 0,
      "byteLength": 160080,
      "byteOffset": 487368,
      "byteStride": 16,
      "name": "floatBufferViews",
      "target": 34962
    }
  ],
  "buffers": [
    {
      "byteLength": 647448,
      "uri": "scene.bin"
    }
  ],
  "images": [
    {
      "uri": "textures/M_Human_Soldier_baseColor.png"
    },
    {
      "uri": "textures/M_Human_Soldier_metallicRoughness.png"
    },
    {
      "uri": "textures/M_Human_Soldier_normal.png"
    },
    {
      "uri": "textures/M_Human_Soldier_Extra_baseColor.png"
    },
    {
      "uri": "textures/M_Human_Soldier_Extra_metallicRoughness.png"
    },
    {
      "uri": "textures/M_Human_Soldier_Extra_normal.png"
    }
  ],
  "materials": [
    {
      "doubleSided": true,
      "name": "M_Human_Soldier",
      "normalTexture": {
        "index": 2
      },
      "pbrMetallicRoughness": {
        "baseColorTexture": {
          "index": 0
        },
        "metallicRoughnessTexture": {
          "index": 1
        }
      }
    },
    {
      "doubleSided": true,
      "name": "M_Human_Soldier_Extra",
      "normalTexture": {
        "index": 5
      },
      "pbrMetallicRoughness": {
        "baseColorTexture": {
          "index": 3
        },
        "metallicRoughnessTexture": {
          "index": 4
        }
      }
    }
  ],
  "meshes": [
    {
      "name": "Human_Soldier_M_Human_Soldier_0",
      "primitives": [
        {
          "attributes": {
            "NORMAL": 1,
            "POSITION": 0,
            "TANGENT": 2,
            "TEXCOORD_0": 3
          },
          "indices": 4,
          "material": 0,
          "mode": 4
        }
      ]
    },
    {
      "name": "Human_Soldier_M_Human_Soldier_Extra_0",
      "primitives": [
        {
          "attributes": {
            "NORMAL": 6,
            "POSITION": 5,
            "TANGENT": 7,
            "TEXCOORD_0": 8
          },
          "indices": 9,
          "material": 1,
          "mode": 4
        }
      ]
    }
  ],
  "nodes": [
    {
      "children": [
        1
      ],
      "matrix": [
        1.0,
        0.0,
        0.0,
        0.0,
        0.0,
        2.220446049250313e-16,
        -1.0,
        0.0,
        0.0,
        1.0,
        2.220446049250313e-16,
        0.0,
        0.0,
        0.0,
        0.0,
        1.0
      ],
      "name": "Sketchfab_model"
    },
    {
      "children": [
        2
      ],
      "matrix": [
        1.0,
        0.0,
        0.0,
        0.0,
        0.0,
        0.0,
        1.0,
        0.0,
        0.0,
        -1.0,
        0.0,
        0.0,
        0.0,
        0.0,
        0.0,
        1.0
      ],
      "name": "474bd60d3d304b2ea44933627252718e.fbx"
    },
    {
      "children": [
        3
      ],
      "name": "RootNode"
    },
    {
      "children": [
        4,
        5
      ],
      "name": "Human_Soldier"
    },
    {
      "mesh": 0,
      "name": "Human_Soldier_M_Human_Soldier_0"
    },
    {
      "mesh": 1,
      "name": "Human_Soldier_M_Human_Soldier_Extra_0"
    }
  ],
  "samplers": [
    {
      "magFilter": 9729,
      "minFilter": 9987,
      "wrapS": 10497,
      "wrapT": 10497
    }
  ],
  "scene": 0,
  "scenes": [
    {
      "name": "Sketchfab_Scene",
      "nodes": [
        0
      ]
    }
  ],
  "textures": [
    {
      "sampler": 0,
      "source": 0
    },
    {
      "sampler": 0,
      "source": 1
    },
    {
      "sampler": 0,
      "source": 2
    },
    {
      "sampler": 0,
      "source": 3
    },
    {
      "sampler": 0,
      "source": 4
    },
    {
      "sampler": 0,
      "source": 5
    }
  ]
}
